<svg width="47" height="64" viewBox="0 0 47 64" fill="none" xmlns="http://www.w3.org/2000/svg">
<path d="M24 35.9108V62.5M35.3322 12.9714V1.5M12.6678 12.9714V1.5M41 19.7492V29.133C41 30.9306 40.2836 32.6545 39.0083 33.9256C37.7331 35.1967 36.0035 35.9108 34.2 35.9108H13.8C11.9965 35.9108 10.2669 35.1967 8.99167 33.9256C7.71643 32.6545 7 30.9306 7 29.133V19.7458C7 17.9482 7.71643 16.2242 8.99167 14.9532C10.2669 13.6821 11.9965 12.968 13.8 12.968H34.2C36.0035 12.968 37.7331 13.6821 39.0083 14.9532C40.2836 16.2242 41 17.9482 41 19.7458V19.7492Z" stroke="black" stroke-width="3" stroke-linecap="round"/>
</svg>
