<svg width="46" height="46" viewBox="0 0 46 46" fill="none" xmlns="http://www.w3.org/2000/svg">
<path d="M34.2539 40.1248C38.3486 37.4121 41.3617 33.3487 42.7681 28.6427C44.1746 23.9366 43.8852 18.8862 41.9504 14.3716C40.0157 9.857 36.5582 6.16434 32.1805 3.93711C27.8027 1.70988 22.7823 1.08928 17.994 2.18344M34.2561 33.6831V40.1226L41.4244 40.1248M10.998 5.19561C6.91511 7.91762 3.91559 11.9847 2.52115 16.6895C1.12671 21.3942 1.42559 26.4389 3.36579 30.9461C5.306 35.4533 8.76476 39.1378 13.1405 41.3587C17.5162 43.5795 22.532 44.1963 27.3154 43.1016M10.998 5.19561V11.5998M10.998 5.19561H3.88273" stroke="black" stroke-width="3.3125" stroke-linecap="round" stroke-linejoin="round"/>
<path d="M23.7577 11.5998L16.0286 22.6414H29.2786L21.5494 33.6831" stroke="black" stroke-width="3.3125" stroke-linecap="round" stroke-linejoin="round"/>
</svg>
