<svg width="93" height="93" viewBox="0 0 93 93" fill="none" xmlns="http://www.w3.org/2000/svg">
<path d="M23.25 38.75H46.5V19.375H23.25V38.75ZM50.375 81.375H19.375C18.2771 81.375 17.3574 81.003 16.616 80.259C15.8746 79.515 15.5026 78.5953 15.5 77.5V19.375C15.5 17.2437 16.2595 15.4199 17.7785 13.9035C19.2975 12.3871 21.1213 11.6276 23.25 11.625H46.5C48.6313 11.625 50.4564 12.3845 51.9754 13.9035C53.4944 15.4225 54.2526 17.2463 54.25 19.375V46.5H59.0938C60.9667 46.5 62.5658 47.1626 63.891 48.4879C65.2163 49.8131 65.8776 51.4109 65.875 53.2812V71.2031C65.875 72.301 66.3271 73.3021 67.2313 74.2062C68.1354 75.1104 69.1365 75.5625 70.2344 75.5625C71.3969 75.5625 72.4147 75.1104 73.2879 74.2062C74.161 73.3021 74.5963 72.301 74.5938 71.2031V34.875H73.625C72.5271 34.875 71.6074 34.503 70.866 33.759C70.1246 33.015 69.7526 32.0953 69.75 31V25.1875C69.75 24.6708 69.9437 24.2188 70.3312 23.8313C70.7187 23.4438 71.1708 23.25 71.6875 23.25V19.375C71.6875 18.8583 71.8812 18.4063 72.2687 18.0188C72.6562 17.6313 73.1083 17.4375 73.625 17.4375C74.1417 17.4375 74.5938 17.6313 74.9813 18.0188C75.3688 18.4063 75.5625 18.8583 75.5625 19.375V23.25H79.4375V19.375C79.4375 18.8583 79.6312 18.4063 80.0187 18.0188C80.4062 17.6313 80.8583 17.4375 81.375 17.4375C81.8917 17.4375 82.3438 17.6313 82.7313 18.0188C83.1188 18.4063 83.3125 18.8583 83.3125 19.375V23.25C83.8292 23.25 84.2813 23.4438 84.6688 23.8313C85.0563 24.2188 85.25 24.6708 85.25 25.1875V31C85.25 32.0979 84.878 33.0189 84.134 33.7629C83.39 34.5069 82.4703 34.8776 81.375 34.875H80.4062V71.2031C80.4062 73.9156 79.4207 76.2897 77.4496 78.3254C75.4785 80.361 73.0747 81.3776 70.2382 81.375C67.4612 81.375 65.0716 80.3572 63.0695 78.3215C61.0674 76.2858 60.0664 73.913 60.0664 71.2031V53.2812C60.0664 52.9583 59.9863 52.7168 59.8261 52.5566C59.666 52.3965 59.4231 52.3151 59.0976 52.3125H54.25V77.5C54.25 78.5979 53.878 79.5189 53.134 80.2629C52.39 81.0069 51.4703 81.3776 50.375 81.375ZM32.9375 73.625L42.625 58.125H36.8125V46.5L27.125 62H32.9375V73.625Z" fill="#9ED624"/>
</svg>
