<svg width="50" height="52" viewBox="0 0 50 52" fill="none" xmlns="http://www.w3.org/2000/svg">
<path d="M9.55714 17.6143V44.4714C9.55714 45.896 10.1231 47.2623 11.1304 48.2696C12.1377 49.2769 13.504 49.8429 14.9286 49.8429H39.1C40.5246 49.8429 41.8908 49.2769 42.8982 48.2696C43.9055 47.2623 44.4714 45.896 44.4714 44.4714V31.0429M4.18571 6.87143V1.5M14.9286 6.87143V1.5M17.6143 8.48286V12.2429C17.6143 13.6674 17.0484 15.0337 16.041 16.041C15.0337 17.0484 13.6674 17.6143 12.2429 17.6143H6.87143C5.44684 17.6143 4.08059 17.0484 3.07325 16.041C2.06592 15.0337 1.5 13.6674 1.5 12.2429V8.48286C1.5 8.05548 1.66978 7.64561 1.97198 7.34341C2.27418 7.0412 2.68405 6.87143 3.11143 6.87143H16.0029C16.4302 6.87143 16.8401 7.0412 17.1423 7.34341C17.4445 7.64561 17.6143 8.05548 17.6143 8.48286Z" stroke="black" stroke-width="3" stroke-linecap="round"/>
<path d="M42.2342 4.1857L37.7571 12.2428H48.5L44.0229 20.3" stroke="black" stroke-width="3" stroke-linecap="round" stroke-linejoin="round"/>
</svg>
