<svg width="65" height="65" viewBox="0 0 65 65" fill="none" xmlns="http://www.w3.org/2000/svg">
<path d="M27.0834 35.6254V56.875M36.1102 17.2927V8.125M18.0565 17.2927V8.125M40.625 22.7094V30.2088C40.625 31.6453 40.0543 33.0231 39.0385 34.0389C38.0227 35.0547 36.6449 35.6254 35.2084 35.6254H18.9584C17.5218 35.6254 16.144 35.0547 15.1282 34.0389C14.1124 33.0231 13.5417 31.6453 13.5417 30.2088V22.7067C13.5417 21.2701 14.1124 19.8923 15.1282 18.8765C16.144 17.8607 17.5218 17.29 18.9584 17.29H35.2084C36.6449 17.29 38.0227 17.8607 39.0385 18.8765C40.0543 19.8923 40.625 21.2701 40.625 22.7067V22.7094Z" stroke="black" stroke-width="5" stroke-linecap="round"/>
<path d="M40.9527 57.8609L46.6998 52.1165M46.6998 52.1165L52.4442 46.3694M46.6998 52.1165L40.95 46.3667M46.6971 52.1138L52.4415 57.8582" stroke="black" stroke-width="5" stroke-linecap="round" stroke-linejoin="round"/>
</svg>
